<svg xmlns="http://www.w3.org/2000/svg" width="30" height="30" viewBox="0 0 35 35">
    <g id="header_logo">
        <g id="그룹_1944" data-name="그룹 1944">
            <path id="패스_1723" data-name="패스 1723"
                  d="M657.915,1428.876H644.2a1.946,1.946,0,0,0-1.686.974l-6.856,11.875a1.948,1.948,0,0,0,0,1.947l6.856,11.875,3.372-1.947-6.294-10.9,5.732-9.928h11.463l6.294,10.9,3.372-1.947L659.6,1429.85A1.947,1.947,0,0,0,657.915,1428.876Z"
                  transform="translate(-630.289 -1428.876)" fill="#9d6cff"/>
            <path id="패스_1724" data-name="패스 1724"
                  d="M648.94,1442.005l-3.372,1.947,6.293,10.9-5.731,9.928H634.666l-6.293-10.9L625,1455.826l6.856,11.875a1.947,1.947,0,0,0,1.686.974h13.712a1.947,1.947,0,0,0,1.686-.974l6.856-11.875a1.947,1.947,0,0,0,0-1.947Z"
                  transform="translate(-625 -1435.553)" fill="#05d2dd"/>
        </g>
    </g>
</svg>
