<svg width="197" height="26" viewBox="0 0 197 26" fill="none" xmlns="http://www.w3.org/2000/svg">
<path d="M9.59276 20.9277L4.21186 11.6078C4.07772 11.3755 4.00708 11.1119 4.00708 10.8437C4.00708 10.5754 4.07772 10.3118 4.21186 10.0795L9.59276 0.764146C9.7269 0.531805 9.91978 0.338881 10.1521 0.204744C10.3845 0.0706071 10.6481 -1.2346e-05 10.9164 1.61893e-09H21.6736C21.9418 -1.2346e-05 22.2054 0.0706071 22.4378 0.204744C22.6701 0.338881 22.863 0.531805 22.9972 0.764146L28.3963 10.0886L25.749 11.6169L20.8093 3.06569H11.7988L7.30029 10.8527L12.24 19.4085L9.59276 20.9277Z" fill="#9C6CFF"/>
<path d="M17.4799 25.9999H6.69995C6.43166 25.9999 6.16811 25.9293 5.93577 25.7952C5.70343 25.6611 5.51048 25.4681 5.37634 25.2357L0 15.925L2.64268 14.3966L7.58239 22.9524H16.5702L21.0641 15.1608L16.129 6.60962L18.7717 5.0813L24.1526 14.3966C24.2867 14.629 24.3573 14.8926 24.3573 15.1608C24.3573 15.4291 24.2867 15.6926 24.1526 15.925L18.7717 25.2448C18.6399 25.4715 18.4515 25.6601 18.2252 25.7924C17.9988 25.9247 17.7421 25.9962 17.4799 25.9999Z" fill="#05D2DD"/>
<path d="M39.3533 17.3712C38.5809 16.9552 37.9374 16.3353 37.493 15.579C37.0515 14.7928 36.8196 13.9063 36.8196 13.0046C36.8196 12.1028 37.0515 11.2164 37.493 10.4301C37.9389 9.67225 38.5839 9.05087 39.3578 8.63343C40.0898 8.25611 40.8931 8.03753 41.7154 7.99208C42.5376 7.94661 43.3601 8.07527 44.1292 8.36962C44.754 8.61726 45.3119 9.0083 45.7576 9.5113L44.8479 10.3937C44.4956 10.0162 44.0676 9.71726 43.5918 9.51658C43.116 9.3159 42.6032 9.218 42.0869 9.22929C41.396 9.21889 40.7142 9.38821 40.1083 9.72051C39.5358 10.0402 39.0634 10.5126 38.7438 11.0851C38.4184 11.6758 38.2479 12.3393 38.2479 13.0136C38.2479 13.6881 38.4184 14.3515 38.7438 14.9423C39.0628 15.5151 39.5354 15.9878 40.1083 16.3068C40.7142 16.6392 41.396 16.8084 42.0869 16.798C42.6045 16.8093 43.1184 16.7101 43.5945 16.5069C44.0706 16.3038 44.4979 16.0014 44.8479 15.6199L45.7576 16.5297C45.3083 17.0338 44.7476 17.4263 44.1201 17.6759C43.4498 17.9462 42.7323 18.0808 42.0096 18.0716C41.0786 18.071 40.1635 17.8297 39.3533 17.3712Z" fill="#dddddd"/>
<path fill-rule="evenodd" clip-rule="evenodd" d="M44.0704 8.52167C43.3229 8.23575 42.5235 8.11078 41.7245 8.15496C40.9256 8.19913 40.145 8.41139 39.4338 8.7778C38.687 9.1809 38.0646 9.78052 37.634 10.5118C37.2067 11.2733 36.9822 12.1319 36.9822 13.0052C36.9822 13.8785 37.2067 14.7371 37.634 15.4987C38.0633 16.2287 38.6847 16.8272 39.4305 17.2287L39.4335 17.2303C40.2194 17.6751 41.1068 17.9092 42.0098 17.9097L42.0118 17.9097C42.713 17.9186 43.4091 17.7881 44.0595 17.5258C44.616 17.3045 45.1186 16.9661 45.5323 16.5347L44.8504 15.8528C44.5082 16.1939 44.1038 16.467 43.6585 16.657C43.162 16.8689 42.6261 16.9725 42.0865 16.9612C41.3685 16.9715 40.66 16.7954 40.0303 16.4499L40.0294 16.4494C39.4301 16.1156 38.9357 15.6212 38.6019 15.022C38.2634 14.4072 38.0856 13.7161 38.0856 13.0143C38.0856 12.3125 38.263 11.6221 38.6016 11.0073L38.602 11.0065C38.9363 10.4077 39.4305 9.91365 40.0292 9.57927L40.0303 9.57867C40.66 9.23332 41.3685 9.05711 42.0865 9.0674C42.6246 9.05605 43.1591 9.1583 43.6551 9.36749C44.1011 9.55558 44.5068 9.82629 44.8512 10.1648L45.531 9.50548C45.1211 9.07662 44.623 8.74085 44.0704 8.52167ZM41.7065 7.83046C42.5516 7.78373 43.397 7.91597 44.1875 8.21849L44.1892 8.21917C44.8377 8.4762 45.4167 8.88208 45.8793 9.40416L45.9824 9.52042L44.8422 10.6264L44.7292 10.5052C44.3926 10.1444 43.9835 9.85873 43.5288 9.66694C43.0741 9.47516 42.584 9.38159 42.0906 9.39238L42.0846 9.39252C41.422 9.38254 40.7682 9.54475 40.1871 9.86332C39.6413 10.1683 39.1909 10.6187 38.886 11.1645C38.5741 11.7311 38.4105 12.3675 38.4105 13.0143C38.4105 13.6612 38.5741 14.2976 38.8861 14.8642C39.1903 15.4104 39.6409 15.861 40.1871 16.1652C40.7681 16.4839 41.422 16.6462 42.0846 16.6362L42.0906 16.6361C42.5851 16.6469 43.0761 16.5522 43.5309 16.3581C43.9857 16.1641 44.3939 15.8752 44.7283 15.5107L44.8429 15.3857L45.9811 16.5239L45.879 16.6384C45.413 17.1613 44.8315 17.5685 44.1807 17.8274C43.4908 18.1055 42.7525 18.244 42.0086 18.2347C41.0505 18.234 40.1089 17.9857 39.2749 17.5141C38.4769 17.0841 37.8122 16.4434 37.353 15.662L37.3514 15.6592C36.8962 14.8487 36.6572 13.9348 36.6572 13.0052C36.6572 12.0756 36.8963 11.1617 37.3514 10.3512L37.353 10.3483C37.814 9.56489 38.4808 8.92257 39.2808 8.49104L39.2835 8.4896C40.0358 8.10181 40.8615 7.87718 41.7065 7.83046Z" fill="#dddddd"/>
<path d="M49.3196 17.3706C48.5385 16.9495 47.8897 16.3196 47.4457 15.5512C46.9984 14.7702 46.7632 13.8858 46.7632 12.9858C46.7632 12.0858 46.9984 11.2015 47.4457 10.4205C47.8915 9.65363 48.5399 9.02413 49.3196 8.60108C50.1455 8.17355 51.0619 7.95044 51.9918 7.95044C52.9219 7.95044 53.8383 8.17355 54.6641 8.60108C55.4381 9.01852 56.083 9.63982 56.529 10.3977C56.9705 11.1839 57.2024 12.0705 57.2024 12.9722C57.2024 13.8739 56.9705 14.7604 56.529 15.5466C56.0827 16.3031 55.4378 16.923 54.6641 17.3388C53.8392 17.7692 52.9224 17.9941 51.9918 17.9941C51.0613 17.9941 50.1446 17.7692 49.3196 17.3388V17.3706ZM53.9409 16.2835C54.5116 15.9616 54.9835 15.4897 55.3054 14.9189C55.6307 14.3282 55.8014 13.6648 55.8014 12.9904C55.8014 12.316 55.6307 11.6526 55.3054 11.0618C54.9832 10.4914 54.5114 10.0196 53.9409 9.69726C53.3479 9.36569 52.6781 9.19629 51.9988 9.20604C51.3151 9.19621 50.6408 9.36561 50.0429 9.69726C49.471 10.0177 48.9987 10.4899 48.6783 11.0618C48.353 11.6526 48.1824 12.316 48.1824 12.9904C48.1824 13.6648 48.353 14.3282 48.6783 14.9189C48.9981 15.4913 49.4705 15.9637 50.0429 16.2835C50.6408 16.6152 51.3151 16.7845 51.9988 16.7748C52.6734 16.7821 53.3383 16.6128 53.9273 16.2835H53.9409Z" fill="#dddddd"/>
<path fill-rule="evenodd" clip-rule="evenodd" d="M49.3961 8.74407C48.6434 9.15281 48.0174 9.7607 47.5868 10.5012C47.1538 11.2574 46.9261 12.1138 46.9261 12.9852C46.9261 13.8568 47.1538 14.7132 47.5869 15.4696C47.9696 16.1317 48.5097 16.6874 49.1575 17.0884V17.0701L49.3952 17.1941C50.197 17.6125 51.0879 17.831 51.9922 17.831C52.8962 17.831 53.7869 17.6126 54.5885 17.1946C55.335 16.7931 55.9575 16.195 56.3885 15.465C56.8159 14.7034 57.0403 13.8449 57.0403 12.9716C57.0403 12.0983 56.8158 11.2397 56.3885 10.4781C55.9578 9.74682 55.3354 9.14725 54.5886 8.74415C53.7861 8.329 52.8958 8.11235 51.9922 8.11235C51.0888 8.11235 50.1985 8.32897 49.3961 8.74407ZM49.4825 17.5996V17.6422L49.2429 17.513C48.4353 17.0776 47.7644 16.4263 47.3054 15.6319L47.305 15.6314C46.8437 14.8257 46.6011 13.9135 46.6011 12.9852C46.6011 12.0569 46.8437 11.1447 47.305 10.3392L47.3056 10.3383L47.3056 10.3383C47.7664 9.54559 48.4366 8.89493 49.2425 8.45766L49.2453 8.45615L49.2453 8.45618C50.0943 8.0167 51.0363 7.78735 51.9922 7.78735C52.9483 7.78735 53.8903 8.0167 54.7392 8.45618L54.7417 8.45745L54.7417 8.45747C55.5417 8.88899 56.2084 9.53125 56.6694 10.3147L56.6711 10.3175L56.6711 10.3175C57.1262 11.1281 57.3653 12.042 57.3653 12.9716C57.3653 13.9012 57.1262 14.8151 56.6711 15.6256L56.6694 15.6286L56.6694 15.6286C56.208 16.4107 55.5413 17.0515 54.7415 17.4813L54.7397 17.4823L54.7397 17.4823C53.8915 17.9248 52.9489 18.156 51.9922 18.156C51.124 18.156 50.2675 17.9656 49.4825 17.5996ZM51.9991 9.04294C52.7062 9.0332 53.4034 9.20971 54.0206 9.55484L54.0212 9.55519C54.6174 9.89204 55.1105 10.3851 55.4473 10.9813L55.4482 10.9828L55.4482 10.9828C55.7867 11.5976 55.9642 12.288 55.9642 12.9898C55.9642 13.6916 55.7867 14.382 55.4482 14.9967L55.4474 14.9982C55.1109 15.5947 54.6177 16.088 54.0211 16.4244L53.9839 16.4454H53.9696C53.3657 16.7746 52.6875 16.9438 51.9994 16.9367C51.2881 16.9465 50.5866 16.7702 49.9644 16.425L49.964 16.4247C49.3654 16.0903 48.8713 15.5962 48.5369 14.9976L48.5364 14.9967C48.1979 14.382 48.0203 13.6916 48.0203 12.9898C48.0203 12.288 48.1979 11.5976 48.5364 10.9828L48.537 10.9818L48.537 10.9818C48.872 10.3838 49.3658 9.88998 49.9638 9.55491L49.9645 9.55457L49.9645 9.55457C50.5865 9.20954 51.2879 9.03312 51.9991 9.04294ZM50.1224 9.8386C49.5769 10.1443 49.1264 10.5947 48.8208 11.1401C48.5089 11.7067 48.3453 12.343 48.3453 12.9898C48.3453 13.6366 48.5089 14.2729 48.8208 14.8395C49.1259 15.3854 49.5764 15.8359 50.1223 16.1409C50.6953 16.4588 51.3416 16.6211 51.9968 16.6117L52.0009 16.6117L52.0009 16.6117C52.6472 16.6187 53.2841 16.4565 53.8484 16.1411L53.8854 16.1204H53.8981C54.4263 15.8138 54.8634 15.3716 55.1639 14.8393C55.4757 14.2727 55.6392 13.6365 55.6392 12.9898C55.6392 12.3431 55.4757 11.7069 55.1639 11.1404C54.8563 10.5961 54.406 10.146 53.8616 9.83833C53.2937 9.52082 52.6521 9.3586 52.0015 9.36794L51.9968 9.368L51.9968 9.36794C51.3416 9.35851 50.6954 9.52082 50.1224 9.8386Z" fill="#dddddd"/>
<path d="M60.0537 17.681C59.4545 17.4982 58.9021 17.1879 58.4343 16.7714L58.9529 15.6797C59.3743 16.0434 59.8625 16.3215 60.3903 16.4985C60.973 16.7117 61.5891 16.8196 62.2096 16.8169C62.8434 16.8574 63.4752 16.7137 64.0291 16.4029C64.215 16.2862 64.3678 16.1237 64.4729 15.9309C64.578 15.7382 64.6319 15.5217 64.6294 15.3022C64.6349 15.1498 64.6085 14.9978 64.5522 14.8561C64.4958 14.7144 64.4106 14.586 64.3019 14.4789C64.0673 14.2629 63.79 14.0986 63.4877 13.9968C63.0399 13.8469 62.5844 13.7209 62.1232 13.6192C61.5156 13.4819 60.9184 13.3026 60.3357 13.0825C59.8865 12.9086 59.4867 12.6276 59.1712 12.2638C58.8317 11.8431 58.6599 11.3117 58.689 10.7719C58.6826 10.2682 58.8267 9.77397 59.103 9.35271C59.4151 8.90195 59.8512 8.55129 60.3584 8.34297C61.0203 8.07254 61.7315 7.94392 62.4461 7.96545C63.0236 7.96414 63.5986 8.03908 64.1564 8.18836C64.673 8.31624 65.1627 8.53496 65.6028 8.83419L65.1479 9.95767C64.7395 9.69622 64.2952 9.49546 63.8289 9.36181C63.386 9.22937 62.9266 9.16048 62.4643 9.15715C61.8356 9.11807 61.2104 9.27715 60.6767 9.61205C60.4915 9.73343 60.3397 9.89966 60.2357 10.0952C60.1315 10.2908 60.0783 10.5094 60.0809 10.731C60.0749 10.8843 60.1019 11.037 60.1599 11.1791C60.218 11.3211 60.3058 11.449 60.4176 11.5543C60.6579 11.774 60.9414 11.9412 61.2499 12.0455C61.6977 12.193 62.1532 12.316 62.6144 12.4139C63.2202 12.5525 63.8159 12.7319 64.3975 12.9507C64.8412 13.1253 65.2371 13.4028 65.5528 13.7603C65.8915 14.1742 66.0634 14.6998 66.0349 15.2339C66.0408 15.7354 65.8948 16.2269 65.6165 16.644C65.3004 17.1004 64.8554 17.4519 64.3383 17.6537C63.671 17.9216 62.9556 18.0486 62.2369 18.0267C61.495 18.0341 60.757 17.9173 60.0537 17.681Z" fill="#dddddd"/>
<path fill-rule="evenodd" clip-rule="evenodd" d="M62.4418 8.12729C61.75 8.10645 61.0614 8.23095 60.4206 8.49274C59.9431 8.68888 59.5325 9.01884 59.2383 9.44294C58.9806 9.83676 58.8461 10.2986 58.8521 10.7692L58.8522 10.78C58.8254 11.2788 58.9833 11.7698 59.2965 12.1589C59.5941 12.5015 59.971 12.7662 60.3943 12.9301C60.9696 13.1474 61.5593 13.3245 62.1592 13.4601C62.6259 13.5629 63.0867 13.6904 63.5399 13.8421C63.8637 13.9512 64.1612 14.1273 64.4126 14.3588L64.4166 14.3625C64.5413 14.4854 64.6391 14.6328 64.7037 14.7955C64.768 14.9569 64.7982 15.1299 64.7925 15.3036C64.7947 15.5496 64.7339 15.7921 64.6162 16.0081C64.4977 16.2253 64.3255 16.4084 64.1161 16.5399L64.1093 16.5442C63.5297 16.8694 62.8686 17.0202 62.2054 16.9788C61.5682 16.9809 60.9356 16.87 60.3371 16.6512C59.8571 16.4901 59.4088 16.2483 59.011 15.9368L58.6348 16.7288C59.0649 17.0899 59.5637 17.3609 60.1017 17.525L60.106 17.5263C60.7922 17.7568 61.5121 17.8709 62.2359 17.8637L62.2425 17.8636C62.9388 17.8848 63.6319 17.7619 64.2784 17.5023L64.2798 17.5018C64.7663 17.3119 65.1851 16.9812 65.4827 16.552C65.7424 16.1625 65.8785 15.7035 65.873 15.2353L65.8729 15.2247C65.8992 14.732 65.7413 14.2472 65.4295 13.865C65.1315 13.5282 64.758 13.2666 64.3397 13.1017C63.7657 12.8858 63.1778 12.7089 62.58 12.572C62.1135 12.473 61.6526 12.3485 61.1996 12.1992L61.1984 12.1988C60.8686 12.0874 60.5655 11.9085 60.3085 11.6736L60.3067 11.672C60.1781 11.5508 60.077 11.4035 60.0101 11.24C59.9439 11.0778 59.9127 10.9034 59.9189 10.7282C59.9167 10.4808 59.9764 10.2367 60.0928 10.0183C60.2097 9.79862 60.3802 9.6119 60.5883 9.47554L60.5909 9.4738C61.1521 9.12162 61.8093 8.95394 62.4705 8.9941C62.9464 8.99794 63.4192 9.06903 63.8751 9.20527C64.2937 9.32532 64.6951 9.49775 65.0699 9.71821L65.4028 8.89609C65.0074 8.64434 64.5735 8.45828 64.1179 8.3455L64.115 8.34477C63.571 8.19919 63.0102 8.12608 62.4471 8.12736L62.4418 8.12729ZM62.449 7.80236C61.7125 7.78054 60.9796 7.91326 60.2975 8.19196C59.7613 8.41219 59.3 8.78303 58.97 9.25961L58.9677 9.26301C58.6747 9.70984 58.5213 10.2338 58.5271 10.7679C58.4973 11.346 58.6818 11.9147 59.0454 12.3653L59.049 12.3697C59.3819 12.7535 59.8037 13.05 60.2776 13.2335L60.2788 13.2339C60.8686 13.4567 61.473 13.6382 62.0879 13.7772L62.0888 13.7773C62.5444 13.8777 62.9944 14.0022 63.4367 14.1503C63.7164 14.2445 63.9731 14.3964 64.1904 14.596C64.2821 14.6869 64.3541 14.7957 64.4017 14.9156C64.4498 15.0363 64.4722 15.1659 64.4676 15.2958L64.4675 15.3035C64.4697 15.4951 64.4226 15.6842 64.3308 15.8525C64.2397 16.0197 64.1074 16.1608 63.9466 16.2626C63.4209 16.5567 62.8216 16.6926 62.2206 16.6541L62.2095 16.6538C61.6082 16.6564 61.0113 16.5519 60.4467 16.3453L60.4425 16.3438C59.9347 16.1736 59.465 15.906 59.0597 15.5561L58.8982 15.4168L58.2358 16.8111L58.3268 16.8922C58.8116 17.3238 59.3839 17.6455 60.0046 17.8352C60.7235 18.0764 61.4776 18.1959 62.2359 18.1887C62.9756 18.2107 63.7119 18.0798 64.3987 17.8042C64.9456 17.5906 65.4163 17.2187 65.7507 16.7359L65.7522 16.7336C66.0478 16.2908 66.2032 15.7691 66.198 15.2367C66.2273 14.664 66.0424 14.1007 65.6791 13.6568L65.6752 13.6521C65.3425 13.2754 64.9252 12.983 64.4576 12.7989L64.4553 12.798C63.8668 12.5766 63.2641 12.3952 62.6512 12.2549L62.6487 12.2544C62.1936 12.1578 61.7439 12.0364 61.3019 11.8907C61.0153 11.7938 60.752 11.6385 60.5287 11.4346C60.4343 11.3455 60.3601 11.2372 60.3109 11.117C60.2617 10.9965 60.2388 10.8668 60.2438 10.7367L60.2439 10.7285C60.2417 10.5342 60.2883 10.3425 60.3797 10.171C60.4707 10 60.6033 9.85458 60.7651 9.74824C61.2696 9.432 61.8605 9.28181 62.4548 9.31874L62.4638 9.31905C62.9107 9.32227 63.3548 9.38888 63.7829 9.51691L63.7847 9.51743C64.2358 9.64674 64.6657 9.84098 65.0609 10.0939L65.2257 10.1994L65.8033 8.77298L65.6948 8.69922C65.2392 8.38946 64.7322 8.16296 64.1975 8.0304C63.6272 7.87791 63.0393 7.80125 62.449 7.80236Z" fill="#dddddd"/>
<path d="M77.1476 17.9122V10.7573L73.5998 16.7204H72.954L69.406 10.8073V17.9167H68.0415V8.09644H69.1877L73.2814 14.9965L77.3205 8.09644H78.4713V17.9122H77.1476Z" fill="#dddddd"/>
<path fill-rule="evenodd" clip-rule="evenodd" d="M67.8787 7.93335H69.2799L73.2801 14.6759L77.227 7.93335H78.6334V18.0741H76.9848V11.3476L73.6918 16.8823H72.8616L69.5682 11.3934V18.0786H67.8787V7.93335ZM68.2037 8.25835V17.7536H69.2432V10.2201L73.0456 16.5573H73.507L77.3098 10.1658V17.7491H78.3084V8.25835H77.4133L73.282 15.316L69.0949 8.25835H68.2037Z" fill="#dddddd"/>
<path d="M83.1928 17.3706C82.4121 16.9495 81.7629 16.3196 81.3193 15.5512C80.8749 14.7692 80.6409 13.8852 80.6409 12.9858C80.6409 12.0865 80.8749 11.2025 81.3193 10.4205C81.7645 9.65363 82.4129 9.02413 83.1928 8.60108C84.0191 8.17355 84.9348 7.95044 85.8651 7.95044C86.7953 7.95044 87.7118 8.17355 88.5373 8.60108C89.3116 9.01852 89.9567 9.63982 90.4019 10.3977C90.8439 11.1839 91.0754 12.0705 91.0754 12.9722C91.0754 13.8739 90.8439 14.7604 90.4019 15.5466C89.9559 16.3031 89.3108 16.923 88.5373 17.3388C87.7126 17.7692 86.7953 17.9941 85.8651 17.9941C84.9348 17.9941 84.0175 17.7692 83.1928 17.3388V17.3706ZM87.8142 16.2835C88.3845 15.9616 88.8566 15.4897 89.1783 14.9189C89.5041 14.3282 89.6747 13.6648 89.6747 12.9904C89.6747 12.316 89.5041 11.6526 89.1783 11.0618C88.8566 10.4914 88.3845 10.0196 87.8142 9.69726C87.2211 9.36512 86.5516 9.19564 85.8716 9.20604C85.1883 9.19686 84.5139 9.36618 83.9159 9.69726C83.344 10.0177 82.8719 10.4899 82.5518 11.0618C82.226 11.6526 82.0554 12.316 82.0554 12.9904C82.0554 13.6648 82.226 14.3282 82.5518 14.9189C82.8711 15.4913 83.344 15.9637 83.9159 16.2835C84.5139 16.6146 85.1883 16.7839 85.8716 16.7748C86.5516 16.7852 87.2211 16.6157 87.8142 16.2835Z" fill="#dddddd"/>
<path fill-rule="evenodd" clip-rule="evenodd" d="M83.2693 8.74408C82.5164 9.15279 81.8905 9.76059 81.4606 10.5009C81.0303 11.2583 80.8038 12.1144 80.8038 12.9852C80.8038 13.8563 81.0303 14.7124 81.4607 15.4699C81.843 16.1318 82.3832 16.6873 83.0307 17.0883V17.0701L83.2684 17.1942C84.0698 17.6125 84.9613 17.831 85.8654 17.831C86.7692 17.831 87.6604 17.6126 88.4616 17.1946C89.2081 16.7931 89.8307 16.1949 90.2615 15.4649C90.6892 14.7035 90.9133 13.8449 90.9133 12.9716C90.9133 12.0983 90.6892 11.2396 90.2614 10.4781C89.8315 9.74689 89.209 9.1473 88.4617 8.74416C87.6597 8.32902 86.7693 8.11235 85.8654 8.11235C84.9617 8.11235 84.0722 8.32896 83.2693 8.74408ZM83.3557 17.5996V17.6422L83.1161 17.513C82.3089 17.0776 81.6376 16.4264 81.1789 15.6319L81.1784 15.6309C80.7201 14.8245 80.4788 13.9128 80.4788 12.9852C80.4788 12.0577 80.7201 11.1461 81.1784 10.3396L81.1791 10.3383L81.1791 10.3383C81.6394 9.5456 82.3096 8.89492 83.1158 8.45765L83.1185 8.45614L83.1186 8.45616C83.9679 8.01671 84.9092 7.78735 85.8654 7.78735C86.8217 7.78735 87.7638 8.0167 88.6124 8.45619L88.6148 8.45743L88.6148 8.45745C89.4152 8.88897 90.0821 9.53125 90.5424 10.3148L90.544 10.3175L90.5439 10.3175C90.9996 11.1281 91.2383 12.0421 91.2383 12.9716C91.2383 13.9012 90.9996 14.8151 90.5439 15.6257L90.5423 15.6286L90.5423 15.6286C90.0811 16.4107 89.4142 17.0515 88.6146 17.4813L88.6129 17.4823L88.6129 17.4823C87.765 17.9248 86.8219 18.156 85.8654 18.156C84.9975 18.156 84.1405 17.9656 83.3557 17.5996ZM85.8718 9.04294C86.5797 9.03252 87.2766 9.20915 87.894 9.55489L87.8945 9.5552C88.4906 9.89202 88.9839 10.3851 89.3202 10.9814L89.321 10.9827L89.321 10.9827C89.6601 11.5975 89.8376 12.288 89.8376 12.9898C89.8376 13.6916 89.6601 14.382 89.321 14.9968L89.3203 14.9981C88.984 15.5948 88.4906 16.088 87.8944 16.4244L87.894 16.4247C87.2766 16.7705 86.5797 16.9471 85.8718 16.9367C85.161 16.9458 84.4597 16.7695 83.8376 16.4251L83.837 16.4247C83.2389 16.0903 82.7443 15.5963 82.4103 14.9975L82.4099 14.9968C82.0708 14.382 81.8933 13.6916 81.8933 12.9898C81.8933 12.288 82.0708 11.5975 82.4099 10.9827L82.4104 10.9819C82.7452 10.3838 83.2388 9.88999 83.8369 9.55491L83.8376 9.55451L83.8376 9.55451C84.4597 9.2101 85.161 9.03379 85.8718 9.04294ZM87.7349 9.8383C87.1668 9.52024 86.5257 9.35797 85.8744 9.36793L85.8698 9.368L85.8698 9.36794C85.2149 9.35914 84.5685 9.52139 83.9954 9.83866C83.4499 10.1444 82.9996 10.5947 82.6942 11.1401C82.3819 11.7067 82.2183 12.343 82.2183 12.9898C82.2183 13.6367 82.3819 14.2729 82.6943 14.8395C82.9988 15.3853 83.4498 15.8358 83.9953 16.1409C84.5685 16.4582 85.2149 16.6204 85.8698 16.6117L85.8744 16.6116L85.8744 16.6117C86.5257 16.6217 87.1669 16.4594 87.735 16.1412C88.2792 15.834 88.7297 15.3837 89.0368 14.8392C89.3491 14.2727 89.5126 13.6365 89.5126 12.9898C89.5126 12.3431 89.3491 11.7069 89.0368 11.1404C88.7297 10.5962 88.2792 10.146 87.7349 9.8383Z" fill="#dddddd"/>
<path d="M93.9462 17.681C93.3449 17.4993 92.7908 17.1888 92.322 16.7714L92.8404 15.6797C93.2629 16.0424 93.7504 16.3205 94.2776 16.4985C94.861 16.7117 95.4769 16.8196 96.0976 16.8169C96.7313 16.858 97.3634 16.7142 97.9167 16.4029C98.1028 16.2862 98.2555 16.1237 98.3603 15.9309C98.4659 15.7382 98.5196 15.5217 98.5171 15.3022C98.5228 15.1498 98.496 14.9978 98.4399 14.8561C98.3839 14.7144 98.2986 14.586 98.1897 14.4789C97.9549 14.2629 97.6778 14.0986 97.3756 13.9968C96.9279 13.8469 96.4721 13.7209 96.0106 13.6192C95.4037 13.4819 94.8058 13.3026 94.2232 13.0825C93.7739 12.9086 93.3742 12.6276 93.0589 12.2638C92.7193 11.8431 92.5479 11.3117 92.5771 10.7719C92.5706 10.2682 92.7144 9.77397 92.9907 9.35271C93.3027 8.90195 93.739 8.55129 94.246 8.34297C94.9081 8.07254 95.619 7.94392 96.334 7.96545C96.9109 7.96414 97.4861 8.03908 98.0443 8.18836C98.561 8.31624 99.0501 8.53496 99.4905 8.83419L99.0355 9.95767C98.6268 9.69622 98.1832 9.49546 97.7168 9.36181C97.274 9.22905 96.8142 9.16007 96.3519 9.15715C95.723 9.11807 95.0982 9.27715 94.5644 9.61205C94.38 9.73408 94.2281 9.90039 94.1241 10.0958C94.0201 10.2912 93.9665 10.5096 93.9689 10.731C93.964 10.8841 93.9908 11.0366 94.0493 11.1784C94.107 11.3203 94.1948 11.4483 94.3053 11.5543C94.5458 11.774 94.8293 11.9412 95.1372 12.0455C95.5857 12.1925 96.0407 12.3155 96.5022 12.4139C97.1075 12.5525 97.7038 12.7319 98.2848 12.9507C98.7292 13.1253 99.1248 13.4028 99.4401 13.7603C99.7789 14.1742 99.9511 14.6998 99.9227 15.2339C99.9284 15.7354 99.7821 16.2269 99.5043 16.644C99.1882 17.1004 98.743 17.4519 98.2263 17.6537C97.5584 17.9216 96.8434 18.0486 96.1244 18.0267C95.3842 18.0341 94.6473 17.9173 93.9462 17.681Z" fill="#dddddd"/>
<path fill-rule="evenodd" clip-rule="evenodd" d="M96.3287 8.12729C95.6365 8.10645 94.9482 8.23095 94.3071 8.49276C93.8298 8.68893 93.419 9.01889 93.125 9.44293C92.8673 9.83669 92.7331 10.2985 92.7392 10.7692L92.7393 10.7801C92.7123 11.2789 92.87 11.7699 93.1832 12.1589C93.4806 12.5015 93.8574 12.7662 94.2809 12.9302C94.856 13.1474 95.4464 13.3245 96.0457 13.4601C96.5126 13.5629 96.9738 13.6904 97.4268 13.8421C97.7507 13.9512 98.0478 14.1274 98.2993 14.3587L98.3033 14.3624C98.4282 14.4853 98.5262 14.6329 98.5906 14.7958C98.6543 14.9567 98.6852 15.1296 98.6792 15.3037C98.6813 15.5496 98.6209 15.7921 98.5024 16.0084C98.3842 16.2255 98.2122 16.4085 98.0027 16.54L97.996 16.5441C97.4169 16.8699 96.7555 17.0207 96.0923 16.9788C95.4548 16.9809 94.8224 16.87 94.2233 16.6512C93.7437 16.4891 93.296 16.2472 92.8977 15.9364L92.5214 16.7288C92.9525 17.0907 93.4529 17.3617 93.9928 17.5249L93.9976 17.5264C94.6815 17.7568 95.4003 17.8709 96.1223 17.8637L96.1289 17.8636C96.8255 17.8848 97.5182 17.7619 98.1653 17.5023L98.1667 17.5018C98.6529 17.3119 99.0719 16.9812 99.3694 16.5521C99.6287 16.1624 99.7651 15.7034 99.7598 15.2352L99.7597 15.2247C99.7859 14.732 99.6277 14.2472 99.3158 13.8649C99.0182 13.5281 98.645 13.2666 98.226 13.1017C97.6527 12.8859 97.0641 12.7089 96.4667 12.572C95.9999 12.4724 95.5397 12.3479 95.0862 12.1993L95.0847 12.1988C94.7555 12.0874 94.4524 11.9085 94.1952 11.6736L94.1924 11.671C94.0658 11.5497 93.965 11.4027 93.8985 11.2394C93.8316 11.0769 93.8009 10.9029 93.806 10.7287C93.8038 10.4811 93.8641 10.2371 93.9802 10.0189C94.0971 9.79932 94.2676 9.61276 94.4744 9.47594L94.4776 9.47377C95.0389 9.12163 95.6957 8.95395 96.357 8.99409C96.8329 8.99753 97.3063 9.0687 97.7621 9.20528C98.1808 9.32536 98.5817 9.49781 98.9565 9.71824L99.2894 8.89611C98.8938 8.64432 98.4604 8.45827 98.0048 8.34551L98.0018 8.34478C97.4575 8.19919 96.8965 8.12608 96.334 8.12736L96.3287 8.12729ZM96.3358 7.80236C95.599 7.78054 94.8665 7.91326 94.1841 8.19194C93.6481 8.41217 93.1865 8.78301 92.8567 9.25964L92.8544 9.26301C92.5613 9.70989 92.4084 10.2338 92.4142 10.7679C92.3842 11.3459 92.5683 11.9147 92.9321 12.3653L92.9357 12.3696C93.2684 12.7535 93.6901 13.05 94.1641 13.2335L94.1654 13.2339C94.755 13.4567 95.3602 13.6382 95.9744 13.7771L95.9753 13.7773C96.4311 13.8777 96.8813 14.0022 97.3234 14.1502C97.6031 14.2445 97.8595 14.3963 98.0772 14.596C98.1691 14.6869 98.2411 14.7957 98.2884 14.9153C98.3364 15.0366 98.3591 15.1662 98.3543 15.2955L98.3542 15.3034C98.3563 15.4953 98.3095 15.6842 98.2174 15.8522C98.1265 16.0193 97.9941 16.1609 97.8331 16.2627C97.3081 16.5571 96.7087 16.6931 96.1077 16.6541L96.0965 16.6538C95.495 16.6564 94.8983 16.5519 94.333 16.3453L94.3292 16.3439C93.8218 16.1726 93.3525 15.905 92.9458 15.5559L92.7844 15.4173L92.1226 16.8111L92.2135 16.8922C92.6993 17.3247 93.2734 17.6466 93.8963 17.8352C94.6129 18.0764 95.366 18.1959 96.1223 18.1887C96.8624 18.2107 97.5983 18.0798 98.2856 17.8042C98.8322 17.5906 99.3031 17.2187 99.6374 16.7359L99.6391 16.7335C99.9341 16.2908 100.09 15.7692 100.085 15.2367C100.114 14.664 99.9287 14.1007 99.5654 13.6568L99.5615 13.6522C99.2293 13.2754 98.8122 12.9829 98.3438 12.7988L98.3416 12.798C97.7538 12.5766 97.1504 12.3952 96.538 12.255L96.5357 12.2544C96.0802 12.1572 95.631 12.0358 95.1882 11.8907C94.9025 11.7939 94.6393 11.6387 94.4159 11.4351C94.3222 11.3448 94.2481 11.2363 94.1994 11.1166C94.1499 10.9966 94.1267 10.8663 94.1309 10.7356L94.131 10.7286C94.1288 10.5346 94.1758 10.3431 94.2671 10.1716C94.358 10.0009 94.4907 9.8552 94.6521 9.74805C95.1567 9.43192 95.7471 9.28182 96.3414 9.31874L96.3504 9.31905C96.7973 9.32188 97.2418 9.38855 97.6697 9.51687L97.6716 9.51743C98.1228 9.64672 98.552 9.84095 98.9475 10.094L99.1123 10.1994L99.6899 8.77296L99.5814 8.6992C99.1256 8.38949 98.6193 8.16297 98.0844 8.03039C97.5137 7.87792 96.9256 7.80125 96.3358 7.80236Z" fill="#dddddd"/>
<path d="M103.738 9.31539H100.372V8.09644H108.496V9.31539H105.13V17.9122H103.738V9.31539Z" fill="#dddddd"/>
<path fill-rule="evenodd" clip-rule="evenodd" d="M100.209 7.93335H108.658V9.47731H105.292V18.0741H103.575V9.47731H100.209V7.93335ZM100.534 8.25835V9.15231H103.9V17.7491H104.967V9.15231H108.333V8.25835H100.534Z" fill="#dddddd"/>
<path d="M115.786 15.4698H110.569L109.491 17.9214H108.044L112.493 8.10571H113.88L118.343 17.9214H116.869L115.786 15.4698ZM115.295 14.3463L113.18 9.53395L111.06 14.3463H115.295Z" fill="#dddddd"/>
<path fill-rule="evenodd" clip-rule="evenodd" d="M112.388 7.9436H113.985L118.595 18.0843H116.763L115.681 15.6327H110.675L109.598 18.0843H107.793L112.388 7.9436ZM112.598 8.2686L108.297 17.7593H109.386L110.463 15.3077H115.893L116.975 17.7593H118.09L113.776 8.2686H112.598ZM113.181 9.13083L115.544 14.5092H110.812L113.181 9.13083ZM111.31 14.1842H115.046L113.18 9.93784L111.31 14.1842Z" fill="#dddddd"/>
<path d="M121.258 9.31539H117.892V8.09644H126.011V9.31539H122.645V17.9122H121.258V9.31539Z" fill="#dddddd"/>
<path fill-rule="evenodd" clip-rule="evenodd" d="M117.73 7.93335H126.174V9.47731H122.808V18.0741H121.096V9.47731H117.73V7.93335ZM118.055 8.25835V9.15231H121.421V17.7491H122.483V9.15231H125.849V8.25835H118.055Z" fill="#dddddd"/>
<path d="M127.553 8.09644H128.959V17.9122H127.553V8.09644Z" fill="#dddddd"/>
<path fill-rule="evenodd" clip-rule="evenodd" d="M127.391 7.93335H129.121V18.0741H127.391V7.93335ZM127.716 8.25835V17.7491H128.796V8.25835H127.716Z" fill="#dddddd"/>
<path d="M133.644 17.3706C132.863 16.9495 132.214 16.3196 131.77 15.5512C131.326 14.7692 131.092 13.8852 131.092 12.9858C131.092 12.0865 131.326 11.2025 131.77 10.4205C132.216 9.65363 132.864 9.02413 133.644 8.60108C134.47 8.17355 135.387 7.95044 136.316 7.95044C137.247 7.95044 138.163 8.17355 138.988 8.60108C139.764 9.01739 140.409 9.63901 140.853 10.3977C141.295 11.1839 141.527 12.0705 141.527 12.9722C141.527 13.8739 141.295 14.7604 140.853 15.5466C140.409 16.3042 139.764 16.9243 138.988 17.3388C138.164 17.7692 137.247 17.9941 136.316 17.9941C135.386 17.9941 134.469 17.7692 133.644 17.3388V17.3706ZM138.265 16.2835C138.837 15.9616 139.308 15.4897 139.63 14.9189C139.958 14.3292 140.13 13.6654 140.13 12.9904C140.13 12.3155 139.958 11.6517 139.63 11.0618C139.308 10.4914 138.836 10.0196 138.265 9.69726C137.672 9.36512 137.003 9.19564 136.324 9.20604C135.639 9.19686 134.965 9.36618 134.367 9.69726C133.794 10.016 133.321 10.4886 133.003 11.0618C132.675 11.6517 132.502 12.3155 132.502 12.9904C132.502 13.6654 132.675 14.3292 133.003 14.9189C133.321 15.4926 133.794 15.9654 134.367 16.2835C134.965 16.6146 135.639 16.7839 136.324 16.7748C137.003 16.7852 137.672 16.6157 138.265 16.2835Z" fill="#dddddd"/>
<path fill-rule="evenodd" clip-rule="evenodd" d="M133.721 8.74408C132.968 9.15279 132.342 9.76059 131.912 10.5009C131.482 11.2583 131.255 12.1144 131.255 12.9852C131.255 13.8563 131.482 14.7124 131.912 15.4699C132.294 16.1318 132.835 16.6873 133.482 17.0883V17.0701L133.72 17.1942C134.521 17.6125 135.413 17.831 136.317 17.831C137.221 17.831 138.112 17.6126 138.913 17.1945C139.661 16.7943 140.284 16.196 140.713 15.4651C141.141 14.7036 141.365 13.845 141.365 12.9716C141.365 12.0982 141.141 11.2395 140.713 10.478C140.284 9.746 139.661 9.14616 138.913 8.74421C138.111 8.32903 137.221 8.11235 136.317 8.11235C135.414 8.11235 134.524 8.32897 133.721 8.74408ZM133.807 17.5996V17.6422L133.568 17.513C132.76 17.0776 132.089 16.4264 131.63 15.6319L131.63 15.6309C131.171 14.8245 130.93 13.9128 130.93 12.9852C130.93 12.0577 131.171 11.1461 131.63 10.3396L131.631 10.3383L131.631 10.3383C132.091 9.5456 132.761 8.89492 133.567 8.45765L133.57 8.45614L133.57 8.45616C134.419 8.01671 135.361 7.78735 136.317 7.78735C137.273 7.78735 138.215 8.0167 139.064 8.45619L139.066 8.45732L139.066 8.45733C139.867 8.88777 140.534 9.5305 140.994 10.315L140.995 10.3175L140.995 10.3175C141.451 11.1281 141.69 12.0421 141.69 12.9716C141.69 13.9012 141.451 14.8151 140.995 15.6257L140.994 15.6283L140.994 15.6283C140.534 16.4117 139.867 17.0529 139.066 17.4815L139.064 17.4823L139.064 17.4823C138.216 17.9248 137.273 18.156 136.317 18.156C135.449 18.156 134.592 17.9656 133.807 17.5996ZM136.324 9.04294C137.031 9.03252 137.728 9.20916 138.345 9.55489L138.346 9.5552C138.942 9.89203 139.435 10.3851 139.772 10.9812L139.773 10.9824C140.114 11.5963 140.293 12.2872 140.293 12.9898C140.293 13.6924 140.114 14.3834 139.773 14.9972L139.772 14.9983C139.435 15.5947 138.943 16.0879 138.346 16.4245L138.345 16.4247C137.728 16.7705 137.031 16.9471 136.324 16.9367C135.612 16.9458 134.911 16.7695 134.289 16.4251L134.289 16.425C133.689 16.0922 133.194 15.5975 132.862 14.9972C132.52 14.3833 132.341 13.6924 132.341 12.9898C132.341 12.2872 132.52 11.5963 132.862 10.9823C133.195 10.3826 133.69 9.88812 134.289 9.55468L134.289 9.55451C134.911 9.2101 135.612 9.03379 136.324 9.04294ZM138.186 9.8383C137.618 9.52023 136.977 9.35797 136.327 9.36793L136.322 9.368L136.322 9.36794C135.666 9.35914 135.02 9.52142 134.447 9.83872C133.9 10.1427 133.449 10.5935 133.146 11.1401L133.146 11.1402C132.831 11.7059 132.666 12.3425 132.666 12.9898C132.666 13.6371 132.831 14.2737 133.146 14.8393L133.146 14.8396C133.449 15.3866 133.9 15.8374 134.447 16.1408C135.02 16.4581 135.666 16.6204 136.322 16.6117L136.327 16.6116L136.327 16.6117C136.977 16.6217 137.618 16.4594 138.187 16.1411C138.731 15.8339 139.181 15.3837 139.489 14.8389C139.803 14.2734 139.968 13.6369 139.968 12.9898C139.968 12.3427 139.803 11.7063 139.489 11.1407C139.181 10.5963 138.731 10.146 138.186 9.8383Z" fill="#dddddd"/>
<path d="M152.116 8.09644V17.9122H150.965L145.052 10.589V17.9122H143.652V8.09644H144.839L150.729 15.415V8.09644H152.116Z" fill="#dddddd"/>
<path fill-rule="evenodd" clip-rule="evenodd" d="M143.49 7.93335H144.917L150.567 14.9534V7.93335H152.279V18.0741H150.888L145.215 11.0483V18.0741H143.49V7.93335ZM143.814 8.25835V17.7491H144.89V10.1285L151.044 17.7491H151.954V8.25835H150.892V15.8755L144.761 8.25835H143.814Z" fill="#dddddd"/>
<path d="M58.0224 6.34106L45.5464 18.8171L46.3858 19.6565L58.8618 7.18051L58.0224 6.34106Z" fill="#dddddd"/>
<path fill-rule="evenodd" clip-rule="evenodd" d="M58.0222 6.11084L59.0915 7.18009L46.3857 19.8859L45.3164 18.8166L58.0222 6.11084ZM58.0222 6.57045L45.776 18.8166L46.3857 19.4263L58.6318 7.18009L58.0222 6.57045Z" fill="#dddddd"/>
<path d="M192.15 5.68726H162.901C160.657 5.68726 158.838 7.50603 158.838 9.74961V16.2494C158.838 18.493 160.657 20.3117 162.901 20.3117H192.15C194.393 20.3117 196.212 18.493 196.212 16.2494V9.74961C196.212 7.50603 194.393 5.68726 192.15 5.68726Z" fill="#EEEEEE"/>
<path d="M163.303 16.6563H166.403C168.636 16.6563 170.167 15.3108 170.167 13.2438C170.167 11.1768 168.636 9.83135 166.403 9.83135H163.303V16.6563ZM164.882 15.3596V11.1281H166.325C167.681 11.1281 168.568 11.9373 168.568 13.2438C168.568 14.5503 167.681 15.3596 166.325 15.3596H164.882Z" fill="#5653E8"/>
<path d="M174.663 16.7733C176.808 16.7733 178.398 15.2816 178.398 13.2438C178.398 11.2061 176.808 9.71436 174.663 9.71436C172.509 9.71436 170.929 11.2158 170.929 13.2438C170.929 15.2718 172.509 16.7733 174.663 16.7733ZM174.663 15.4278C173.445 15.4278 172.528 14.5406 172.528 13.2438C172.528 11.9471 173.445 11.0598 174.663 11.0598C175.882 11.0598 176.799 11.9471 176.799 13.2438C176.799 14.5406 175.882 15.4278 174.663 15.4278Z" fill="#5653E8"/>
<path d="M182.851 16.7733C184.04 16.7733 185.025 16.3443 185.669 15.5546L184.655 14.6186C184.196 15.1548 183.621 15.4278 182.939 15.4278C181.661 15.4278 180.755 14.5308 180.755 13.2438C180.755 11.9568 181.661 11.0598 182.939 11.0598C183.621 11.0598 184.196 11.3328 184.655 11.8593L185.669 10.9233C185.025 10.1434 184.04 9.71436 182.861 9.71436C180.735 9.71436 179.156 11.1866 179.156 13.2438C179.156 15.3011 180.735 16.7733 182.851 16.7733Z" fill="#5653E8"/>
<path d="M188.92 16.7733C190.87 16.7733 191.816 15.7983 191.816 14.6576C191.816 12.1518 187.848 13.0196 187.848 11.7618C187.848 11.3328 188.209 10.9818 189.145 10.9818C189.749 10.9818 190.402 11.1573 191.036 11.5181L191.524 10.3188C190.89 9.9191 190.012 9.71436 189.154 9.71436C187.214 9.71436 186.278 10.6796 186.278 11.8398C186.278 14.3748 190.246 13.4973 190.246 14.7746C190.246 15.1938 189.866 15.5058 188.93 15.5058C188.111 15.5058 187.253 15.2133 186.678 14.7941L186.142 15.9835C186.746 16.4515 187.838 16.7733 188.92 16.7733Z" fill="#5653E8"/>
</svg>
