<svg width="16" height="16" viewBox="0 0 16 16" fill="none" xmlns="http://www.w3.org/2000/svg">
<g id="icon / caution">
<path id="Vector" d="M8.00004 1.33333C4.32604 1.33333 1.33337 4.32599 1.33337 8C1.33337 11.674 4.32604 14.6667 8.00004 14.6667C11.674 14.6667 14.6667 11.674 14.6667 8C14.6667 4.32599 11.674 1.33333 8.00004 1.33333ZM8.00004 2.66666C10.9535 2.66666 13.3334 5.04658 13.3334 8C13.3334 10.9534 10.9535 13.3333 8.00004 13.3333C5.04663 13.3333 2.66671 10.9534 2.66671 8C2.66671 5.04658 5.04663 2.66666 8.00004 2.66666ZM7.33337 4.66666V6H8.66671V4.66666H7.33337ZM7.33337 7.33333V11.3333H8.66671V7.33333H7.33337Z" fill="#F97583"/>
</g>
</svg>
